<svg width="4945" height="712" xmlns="http://www.w3.org/2000/svg" xmlns:xlink="http://www.w3.org/1999/xlink" overflow="hidden"><defs><clipPath id="clip0"><rect x="206" y="173" width="4945" height="712"/></clipPath></defs><g clip-path="url(#clip0)" transform="translate(-206 -173)"><path d="M211.5 297C211.5 239.839 354.545 193.5 531 193.5 707.455 193.5 850.5 239.839 850.5 297 850.5 354.161 707.455 400.5 531 400.5 354.545 400.5 211.5 354.161 211.5 297Z" stroke="#000000" stroke-width="4.58333" stroke-miterlimit="8" fill="none" fill-rule="evenodd"/><text font-family="Calibri,Calibri_MSFontService,sans-serif" font-weight="400" font-size="83" transform="matrix(1 0 0 1 431.634 324)">Addin</text><path d="M2602.5 294.5C2602.5 236.51 2748.68 189.5 2929 189.5 3109.32 189.5 3255.5 236.51 3255.5 294.5 3255.5 352.49 3109.32 399.5 2929 399.5 2748.68 399.5 2602.5 352.49 2602.5 294.5Z" stroke="#000000" stroke-width="4.58333" stroke-miterlimit="8" fill="none" fill-rule="evenodd"/><text font-family="Calibri,Calibri_MSFontService,sans-serif" font-weight="400" font-size="83" transform="matrix(1 0 0 1 2869.82 322)">Tab</text><path d="M3688.5 297.5C3688.5 239.51 3834.68 192.5 4015 192.5 4195.32 192.5 4341.5 239.51 4341.5 297.5 4341.5 355.49 4195.32 402.5 4015 402.5 3834.68 402.5 3688.5 355.49 3688.5 297.5Z" stroke="#000000" stroke-width="4.58333" stroke-miterlimit="8" fill="none" fill-rule="evenodd"/><text font-family="Calibri,Calibri_MSFontService,sans-serif" font-weight="400" font-size="83" transform="matrix(1 0 0 1 3890.81 325)">Control</text><path d="M1798.5 299C1798.5 240.734 1944.68 193.5 2125 193.5 2305.32 193.5 2451.5 240.734 2451.5 299 2451.5 357.266 2305.32 404.5 2125 404.5 1944.68 404.5 1798.5 357.266 1798.5 299Z" stroke="#000000" stroke-width="4.58333" stroke-miterlimit="8" fill="none" fill-rule="evenodd"/><text font-family="Calibri,Calibri_MSFontService,sans-serif" font-weight="400" font-size="83" transform="matrix(1 0 0 1 2032.44 326)">Panel</text><path d="M4492.5 297.5C4492.5 239.51 4638.68 192.5 4819 192.5 4999.32 192.5 5145.5 239.51 5145.5 297.5 5145.5 355.49 4999.32 402.5 4819 402.5 4638.68 402.5 4492.5 355.49 4492.5 297.5Z" stroke="#000000" stroke-width="11.4583" stroke-miterlimit="8" fill="none" fill-rule="evenodd"/><text font-family="Calibri,Calibri_MSFontService,sans-serif" font-weight="400" font-size="83" transform="matrix(1 0 0 1 4719.94 275)">Addin<tspan font-size="83" x="-74.479" y="99">Command</tspan></text><path d="M3154.5 658C3154.5 599.734 3300.68 552.5 3481 552.5 3661.32 552.5 3807.5 599.734 3807.5 658 3807.5 716.266 3661.32 763.5 3481 763.5 3300.68 763.5 3154.5 716.266 3154.5 658Z" stroke="#000000" stroke-width="4.58333" stroke-miterlimit="8" fill="none" fill-rule="evenodd"/><text font-family="Calibri,Calibri_MSFontService,sans-serif" font-weight="400" font-size="83" transform="matrix(1 0 0 1 3303.36 685)">Dropdown</text><path d="M994.5 296.5C994.5 239.615 1137.54 193.5 1314 193.5 1490.45 193.5 1633.5 239.615 1633.5 296.5 1633.5 353.385 1490.45 399.5 1314 399.5 1137.54 399.5 994.5 353.385 994.5 296.5Z" stroke="#000000" stroke-width="4.58333" stroke-miterlimit="8" fill="none" fill-rule="evenodd"/><text font-family="Calibri,Calibri_MSFontService,sans-serif" font-weight="400" font-size="83" transform="matrix(1 0 0 1 1128.52 324)">Workspace</text><path d="M0.0140427-5.72915 115.513-5.44605 115.485 6.01225-0.0140427 5.72915ZM109.812-16.9184 144.145 0.353314 109.728 17.4565Z" fill="#4472C4" transform="matrix(1 0 0 -1 850.5 296.853)"/><path d="M1633.58 290.771 1769.6 292.594 1769.45 304.051 1633.42 302.229ZM1764.03 281.06 1798.17 298.706 1763.57 315.431Z" fill="#4472C4"/><path d="M2931.34 394.526 3228.02 564.114 3222.33 574.062 2925.66 404.474ZM3228.73 551.323 3250.04 583.304 3211.67 581.166Z" fill="#4472C4"/><path d="M3255.54 288.771 3660.05 291.569 3659.97 303.027 3255.46 300.229ZM3654.4 280.072 3688.66 297.497 3654.16 314.446Z" fill="#4472C4"/><path d="M0.167874-5.72671 122.038-2.15417 121.702 9.29924-0.167874 5.72671ZM116.647-13.7755 150.504 4.41191 115.64 20.5848Z" fill="#4472C4" transform="matrix(1 0 0 -1 2451.5 298.912)"/><path d="M2.93601-4.91967 281.305 161.208 275.433 171.047-2.93601 4.91967ZM282.257 148.433 302.967 180.808 264.641 177.951Z" fill="#4472C4" transform="matrix(1 0 0 -1 3712.5 583.308)"/><path d="M4341.5 291.771 4463.36 291.771 4463.36 303.229 4341.5 303.229ZM4457.63 280.313 4492 297.5 4457.63 314.688Z" fill="#4472C4"/><path d="M3487.22 763.003 3487.9 773.816 3487.83 773.163 3489.76 783.913 3489.63 783.334 3492.69 793.896 3492.48 793.309 3496.73 803.621 3496.5 803.128 3501.75 813.065 3501.51 812.652 3507.64 822.214 3507.33 821.787 3514.33 830.787 3514.02 830.412 3521.83 838.849 3521.52 838.538 3529.95 846.35 3529.58 846.032 3538.58 853.032 3538.15 852.73 3547.71 858.855 3547.3 858.613 3557.24 863.863 3556.75 863.632 3567.06 867.882 3566.47 867.677 3577.03 870.739 3576.45 870.603 3587.2 872.541 3586.55 872.462 3597.36 873.149 3596.8 873.141 3602.24 872.953 3601.78 872.988 3607.15 872.363 3606.7 872.434 3612.08 871.371 3611.71 871.457 3617.08 870.019 3616.77 870.113 3622.08 868.363 3621.67 868.516 3626.92 866.328 3626.5 866.524 3636.81 861.211 3636.26 861.537 3646.2 854.912 3645.75 855.242 3655.31 847.43 3654.91 847.787 3663.91 838.912 3663.58 839.27 3672.02 829.395 3671.75 829.736 3679.56 819.048 3679.3 819.438 3686.3 808.001 3686.07 808.408 3692.2 796.283 3692.02 796.667 3697.27 784.042 3697.11 784.469 3701.36 771.407 3701.17 772.166 3703.37 759.912 3714.65 761.937 3712.38 774.578 3707.94 788.231 3702.52 801.261 3696.2 813.783 3688.95 825.62 3680.87 836.673 3672.13 846.899 3662.77 856.134 3652.78 864.292 3642.35 871.25 3631.54 876.816 3625.88 879.177 3620.2 881.047 3614.48 882.575 3608.7 883.719 3602.87 884.397 3596.92 884.602 3585.5 883.876 3574.13 881.827 3562.98 878.595 3552.13 874.122 3541.74 868.633 3531.75 862.237 3522.35 854.925 3513.57 846.796 3505.44 838.016 3498.13 828.615 3491.73 818.63 3486.24 808.239 3481.77 797.386 3478.54 786.238 3476.49 774.871 3475.78 763.73ZM3691.26 764.519 3712.5 732.492 3725.38 768.703Z" fill="#4472C4"/><path d="M211.5 300C211.5 242.839 354.545 196.5 531 196.5 707.455 196.5 850.5 242.839 850.5 300 850.5 357.162 707.455 403.5 531 403.5 354.545 403.5 211.5 357.162 211.5 300Z" stroke="#000000" stroke-width="11.4583" stroke-miterlimit="8" fill="none" fill-rule="evenodd"/><text font-family="Calibri,Calibri_MSFontService,sans-serif" font-weight="400" font-size="83" transform="matrix(1 0 0 1 431.634 327)">Addin</text><path d="M2602.5 297.5C2602.5 239.51 2748.68 192.5 2929 192.5 3109.32 192.5 3255.5 239.51 3255.5 297.5 3255.5 355.49 3109.32 402.5 2929 402.5 2748.68 402.5 2602.5 355.49 2602.5 297.5Z" stroke="#000000" stroke-width="11.4583" stroke-miterlimit="8" fill="none" fill-rule="evenodd"/><text font-family="Calibri,Calibri_MSFontService,sans-serif" font-weight="400" font-size="83" transform="matrix(1 0 0 1 2869.82 325)">Tab</text><path d="M3688.5 300.5C3688.5 242.51 3834.68 195.5 4015 195.5 4195.32 195.5 4341.5 242.51 4341.5 300.5 4341.5 358.49 4195.32 405.5 4015 405.5 3834.68 405.5 3688.5 358.49 3688.5 300.5Z" stroke="#000000" stroke-width="11.4583" stroke-miterlimit="8" fill="none" fill-rule="evenodd"/><text font-family="Calibri,Calibri_MSFontService,sans-serif" font-weight="400" font-size="83" transform="matrix(1 0 0 1 3890.81 328)">Control</text><path d="M1798.5 302C1798.5 243.734 1944.68 196.5 2125 196.5 2305.32 196.5 2451.5 243.734 2451.5 302 2451.5 360.266 2305.32 407.5 2125 407.5 1944.68 407.5 1798.5 360.266 1798.5 302Z" stroke="#000000" stroke-width="11.4583" stroke-miterlimit="8" fill="none" fill-rule="evenodd"/><text font-family="Calibri,Calibri_MSFontService,sans-serif" font-weight="400" font-size="83" transform="matrix(1 0 0 1 2032.44 329)">Panel</text><path d="M3154.5 661C3154.5 602.734 3300.68 555.5 3481 555.5 3661.32 555.5 3807.5 602.734 3807.5 661 3807.5 719.266 3661.32 766.5 3481 766.5 3300.68 766.5 3154.5 719.266 3154.5 661Z" stroke="#000000" stroke-width="11.4583" stroke-miterlimit="8" fill="none" fill-rule="evenodd"/><text font-family="Calibri,Calibri_MSFontService,sans-serif" font-weight="400" font-size="83" transform="matrix(1 0 0 1 3303.36 688)">Dropdown</text><path d="M994.5 299.5C994.5 242.615 1137.54 196.5 1314 196.5 1490.45 196.5 1633.5 242.615 1633.5 299.5 1633.5 356.385 1490.45 402.5 1314 402.5 1137.54 402.5 994.5 356.385 994.5 299.5Z" stroke="#000000" stroke-width="11.4583" stroke-miterlimit="8" fill="none" fill-rule="evenodd"/><text font-family="Calibri,Calibri_MSFontService,sans-serif" font-weight="400" font-size="83" transform="matrix(1 0 0 1 1128.52 327)">Workspace</text></g></svg>